<svg version="1.2" xmlns="http://www.w3.org/2000/svg" viewBox="0 0 455 364" width="455" height="364">
	<title>Tour_de_France_logo_2019</title>
	<style>
		.s0 { fill: #ffff00 } 
		.s1 { fill: #000000 } 
	</style>
	<g id="TDF-Logo">
		<g>
			<path fill-rule="evenodd" class="s0" d="m454 102.6c-2.4 31.3-29.7 54.5-60.9 52.1-31.3-2.4-54.6-29.7-52.1-60.9 2.4-31.3 29.6-54.6 60.9-52.1 31.2 2.4 54.5 29.6 52.1 60.9z"/>
			<g>
				<path fill-rule="evenodd" class="s1" d="m187.9 86.3c30.5 0.9 54.6 26.6 53.6 57.2-0.9 30.7-26.5 54.7-57.1 53.8-30.6-1-54.6-26.6-53.7-57.3 1-30.6 26.6-54.7 57.2-53.7zm-1 13.5c-20.7-0.7-38.1 15.7-38.8 36.5-0.6 20.8 15.7 38.2 36.5 38.9 20.7 0.6 38.1-15.7 38.8-36.5 0.6-20.9-15.7-38.3-36.5-38.9z"/>
				<path fill-rule="evenodd" class="s1" d="m179.6 134.6c-0.1 4.1 3.3 7.5 7.5 7.6 4.1 0 7.5-3.3 7.6-7.5 0-4.2-3.3-7.6-7.5-7.6-4.2-0.1-7.6 3.3-7.6 7.5z"/>
				<path fill-rule="evenodd" class="s1" d="m273.9 102.9c7.9-14.2 14.5-75.1 14.5-75.1 0 0-16.8 65.5-32.1 64.6-9.9-0.4-28.2-42.1-28.2-42.1 0 0 1.7 28.6 8 44.4 7.7 19.1 24.8 31.6 37.8 8.2z"/>
				<path fill-rule="evenodd" class="s1" d="m329.6 164.5c0.1 1.1 0.4 5 4.1 5.2 4.8 0.3 10-9.3 11.5-12.7l0.1-0.3 2 0.5-0.1 0.4c0 0.1-1 4.8-3.2 9.2-2.9 6-7.6 9.9-11.6 9.9q-0.2-0.1-0.4-0.1c-4.4-0.3-7.6-2.8-9.4-7.2-4.1-11.5-0.9-20.5 3.5-25.1 4.9-5.2 13.1-2.9 13.8 5.5 0.6 6.5-5.5 11.5-10.3 14.7zm2.9-15.3c-3.1 1.8-3.8 8.6-3.7 11.7 0 0 2.5-1.8 4.1-4.1 2.3-3.1 1.9-8.7-0.4-7.6z"/>
				<path fill-rule="evenodd" class="s1" d="m294.8 190.2c-6.6-0.3-9.3-7.4-8.7-11.3 1.2-7.6 10.5-21 17.1-22.5q2-0.5 3.5 0.5l3-29.7 1.8-1.6 3.9 39.9c2.2 10.7 7.1 17.1 7.1 17.1l-2.6 0.9-0.4-0.3c-1.2-0.8-6.7-4.8-8.7-8.3-6.5 12.7-12.3 15.6-16 15.3zm11-21.2c0.9-2.8 0.3-7-2.6-5.7-4 1.7-13.2 22.2-5.9 17.9 3.5-2.1 7.8-9.8 8.5-12.2z"/>
				<path fill-rule="evenodd" class="s1" d="m45.8 249.5c13-5.6 27.9-12.3 43.5-20.2 0 0 1.9-3.2 2.3-4.5 0 0-20.8 1.6-44.6 7 2.4-34.9 22-58.3 35.4-66.9l-6.7-1.2c-36.5 2.9-53.7 39.9-53.4 74.7q0 0 0 0.3c-7.7 2.6-15.1 5.7-21.6 9.4 0 0 0.6 5.5 0.6 9.5 0 3.9-0.6 9.5-0.6 9.5 0 0 8.8-3 23-8.6 2.4 27.7 9.4 69.5 21.9 105h3.8c0 0-5.7-63-3.6-114z"/>
				<path fill-rule="evenodd" class="s1" d="m130 289.4c1.7-10.6-48.3-44.1-53.8-29.9-6.6 16.8-8.8 98.2-8.8 98.2l5.1-2.4 19-79.9c19.8 14.3 23.6 10.1 5 30.7l-1.9 2.1c-0.7 0.8-0.9 1.9-0.5 2.9l4.8 12.7c0.5 1.3 1.6 2.2 3 2.4l38.8 7.7-33.1-20.5c6.8-6.3 21.6-15.6 22.4-24z"/>
				<path fill-rule="evenodd" class="s1" d="m269.2 218.5c-12.1 2.2-32 41.6-32 41.6l-11.7-30.9c-0.5 29.9 4.1 68.7 4.1 68.7l8.9 4.1 29.8-58.8c0 0 1.8 14.1 14.9 44.1l3-1.3c-1.8-22.1 0.6-70.7-17-67.5z"/>
				<path fill-rule="evenodd" class="s1" d="m319 242.3c-8.5-25.1 30.9-49.2 30.9-49.2l-0.2-3.7c0 0-53.2 22.1-53.6 52.5-0.4 24.9 22.3 31.5 44.8 26.4 16.5-3.7 29.4-13.8 29.4-13.8l-1.4-0.8c0 0-41.8 12.7-49.9-11.4z"/>
				<path fill-rule="evenodd" class="s1" d="m454.2 199.1v2.7q0 0.4-0.2 0.7c-3.2 4.4-42 55.8-71.5 48.1-23.5-7.2-25.3-51.4 4.7-75.3 17.1-12.4 29.6-7.4 31.3 1.1 2.1 11-13.4 33-35.7 39 0 0-1.9 9.7 3.7 16.7 13.2 16.2 62.2-24.5 67.7-33zm-70.6 7.9c19-4.8 29.7-26.2 23.2-25.9-3.9 0.1-20.3 11.6-23.2 25.9z"/>
				<path fill-rule="evenodd" class="s1" d="m432.5 179.6h2.7v-10.9h3.4v-2.3h-9.6v2.3h3.5z"/>
				<path fill-rule="evenodd" class="s1" d="m450.6 166.3l-3.3 10.1-3-10.1h-3.7v13.3h2.4v-6.2q0-1-0.1-4.2l3.1 10.3h2.5l3.3-10.3h0.1q-0.2 2.5-0.2 3.1 0 0.5 0 1v6.2h2.5v-13.2z"/>
				<path fill-rule="evenodd" class="s1" d="m107.1 225.5c16.3-78.9 8.6-121.1 8.3-132.3 8.4-3.5 73.4-38 73.4-38-21.4 2.5-102.7 22.6-158.6 50.8 26.7-1.9 57.3-5.3 67.4-7-2.7 38.5-0.2 95.3 9.5 126.5z"/>
				<path fill-rule="evenodd" class="s1" d="m401 20.2c5.4 0 9.8-4.3 9.8-9.7 0.1-5.4-4.2-9.8-9.6-9.8-5.4-0.1-9.8 4.3-9.8 9.6-0.1 5.4 4.3 9.8 9.6 9.9z"/>
				<path fill-rule="evenodd" class="s1" d="m283.3 154.8c12.6-26.7 37.9-112.8 39.5-126.6 0.6-5.1 35.2-8.2 43.6-3.7 0 0-22.1 13-27.8 19.8-5.2 6.2-7.4 13 1 18.9 7.9 5.4 55.3 29.6 55.3 29.6l-0.2-4.2-46.4-34.6c15.9-8.7 39.2-22.4 39.4-30.1q0.1-0.2 0.1-0.5 0 0 0 0 0 0 0 0-0.1-0.4-0.1-0.7c-0.9-5.7-9-15.1-22.1-17.9q-0.1 0-0.1 0c-15.6-4-46.5-4.2-59.5 10.5-3.5 3.9-8.6 32.5-27.8 142.7z"/>
				<path fill-rule="evenodd" class="s1" d="m193.7 269.7q0 0 0 0.1c-0.2 0.3-0.8 1.6-2.3 6.2-1.7 5.2-3.5 9.9-8 16.7-7.8 9.8-17.9 17-21.4 13.7-7.7-7.1 14.6-40.2 33.7-63.6l-8.5-1c-18.7 16-45.3 47.4-45.1 71.3 0.2 29.2 54.8 9.7 57.8-28.5 2.5 7.1 17.5 24.3 17.5 24.3 0 0-7.4-23.3-12.2-38.2-1.8-5.5-9.3-5.6-11.5-1z"/>
			</g>
		</g>
	</g>
</svg>