<?xml version="1.0" encoding="UTF-8"?>
<svg id="Calque_1" data-name="Calque 1" xmlns="http://www.w3.org/2000/svg" viewBox="0 0 480.53 355.37">
  <path d="M272.05,26.78c5.39-1.35,10.46,1.62,14.11,5.29l52.5,67.46c22.72,8.37,52.56,8.55,74.72,16.52,5.45,1.96,9.07,8.52,4.62,12.93-2.48,2.46-15.54.91-20.07,1.17-20.6,1.17-41.39,2.07-62.16,1.02-17.97-8.16-34.15-23.56-51.32-32.41-16.78-8.64-26.1-.51-42.04,5.87-7.74,3.1-35.99,13.98-40.11,18.63-2.81,3.18-4.13,6.82-3.58,11.12l37.38,173.85c3.5,21.31-18.47,26.94-26.84,8.1-15.71-46.52-32.66-92.68-48.16-139.26-7.5-22.52-24.99-63.58-19.66-85.91,2.9-12.15,9.76-18.13,20.49-23.25,34.07-16.25,75.11-26.15,110.14-41.13h-.02Z"/>
  <path d="M362.1,150.56c103.47-10.53,160.8,114.01,80.84,180.75-49.69,41.48-128.15,27.68-159.98-28.67-36.12-63.94,6.83-144.71,79.14-152.07h0ZM363.33,175.52c-60.24,6.78-89.89,79.91-50.22,126.96,37.26,44.19,113.93,34.13,136.1-19.88,24.09-58.68-25.13-113.91-85.88-107.07h0Z"/>
  <path d="M93.37,150.56c10.8-1.01,49.46-.08,54.31,11.18,3.36,7.82-.64,17.88-9.7,18.5-6.3.44-17.19-4.51-24.94-5.12-54.37-4.29-99.53,42.47-85.57,96.77,14.8,57.61,87.93,77.13,131.81,38.23,7.87-6.98,15.93-23.57,28.56-14.86,16.22,11.18-12.15,34.3-21.32,40.83-58.63,41.72-145.05,12.65-163.24-57.51-15.83-61.07,27.53-122.17,90.1-128.03h0Z"/>
  <path d="M352.06.6c56.21-8.22,68.76,71.17,16.86,81.81-58.9,12.07-70.88-73.9-16.86-81.81h0Z"/>
  <path d="M255.71,109.27c5.23-.26,33.78,25.38,35.11,31.84,2.69,13.02-10.06,34.93-15.74,47.41-3.86,8.48-21.32,47.33-26.49,50.97-7.45,5.25-17.84-.85-16.28-9.92,4.21-19.26,12.97-39.03,16.93-58.12,1.97-9.51,3.01-13.18-5.03-19.96-6.29-5.31-21.86-11.9-26.31-17.43-1.54-1.92-2.2-3.05-1.83-5.65.07-1.47.94-2.28,1.86-3.26,1.67-1.79,35.04-15.73,37.78-15.87h0Z"/>
</svg>